<?xml version="1.0" standalone="no"?>
<!DOCTYPE svg PUBLIC "-//W3C//DTD SVG 20010904//EN"
 "http://www.w3.org/TR/2001/REC-SVG-20010904/DTD/svg10.dtd">
<svg version="1.0" xmlns="http://www.w3.org/2000/svg"
 width="512.000000pt" height="512.000000pt" viewBox="0 0 512.000000 512.000000"
 preserveAspectRatio="xMidYMid meet">
<metadata>
Created by potrace 1.14, written by Peter Selinger 2001-2017
</metadata>
<g transform="translate(0.000000,512.000000) scale(0.100000,-0.100000)"
fill="#000000" stroke="none">
<path d="M1798 5105 c-2 -3 -153 -7 -334 -10 -181 -2 -342 -7 -359 -9 -16 -3
-52 -8 -80 -11 -42 -5 -93 -15 -185 -39 -90 -24 -225 -90 -320 -159 -165 -119
-341 -362 -376 -519 -1 -5 -3 -10 -4 -13 -1 -3 -4 -9 -5 -15 -1 -5 -3 -11 -5
-12 -2 -3 -6 -20 -14 -63 -3 -16 -8 -41 -12 -55 -6 -27 -13 -80 -16 -120 -1
-14 -6 -31 -11 -37 -5 -7 -6 -13 -1 -13 5 0 7 -24 5 -52 -1 -29 -4 -88 -4
-130 -1 -43 -6 -78 -10 -78 -6 0 -5 -5 0 -12 5 -7 8 -29 7 -48 -4 -46 -7 -442
-4 -455 1 -5 2 -14 0 -20 -2 -14 -2 -448 0 -460 1 -5 2 -14 1 -20 -2 -8 -2
-172 -2 -490 0 -33 0 -81 0 -107 0 -26 2 -52 5 -57 3 -5 0 -12 -6 -14 -10 -4
-10 -6 0 -6 7 -1 11 -5 8 -9 -5 -9 -8 -137 -4 -225 2 -31 -1 -57 -5 -57 -5 0
-5 -6 0 -12 11 -18 10 -52 -2 -60 -7 -5 -7 -8 0 -8 11 0 13 -249 2 -267 -4 -7
-4 -14 0 -16 5 -3 8 -44 8 -91 0 -47 3 -86 7 -86 4 0 3 -11 -2 -24 -5 -13 -6
-27 -3 -30 6 -6 12 -58 16 -131 1 -16 5 -32 8 -35 4 -3 8 -21 10 -40 2 -19 7
-41 12 -47 5 -7 7 -20 3 -28 -3 -9 0 -18 8 -21 8 -3 13 -13 11 -22 -1 -9 6
-34 17 -55 10 -20 15 -37 12 -37 -4 0 0 -8 9 -18 10 -10 14 -22 10 -25 -3 -4
-1 -7 5 -7 7 0 12 -9 12 -20 0 -11 5 -20 10 -20 6 0 10 -5 10 -11 0 -12 59
-101 74 -111 6 -4 8 -8 4 -8 -5 0 0 -8 10 -18 9 -10 35 -39 57 -63 22 -24 67
-66 100 -92 33 -27 67 -54 77 -62 9 -7 19 -11 22 -8 3 4 6 2 6 -3 0 -6 16 -16
35 -24 19 -8 35 -17 35 -21 0 -4 10 -10 23 -14 12 -4 24 -8 27 -9 3 -2 25 -11
50 -22 25 -10 48 -18 53 -16 4 1 7 -3 7 -10 0 -6 3 -9 6 -6 3 4 20 2 37 -4 33
-10 94 -24 157 -35 19 -3 59 -6 87 -7 29 -1 53 -3 53 -6 0 -6 240 -11 628 -13
149 -1 232 2 232 8 0 7 3 7 8 0 4 -6 82 -10 197 -10 115 0 193 4 197 10 5 7 8
7 8 0 0 -7 223 -9 651 -9 702 2 964 9 1059 30 14 3 36 7 50 9 14 2 25 4 25 5
0 1 7 3 15 5 8 2 26 7 40 10 14 3 32 8 40 10 8 2 16 4 18 5 1 2 5 3 10 5 78
21 299 147 310 176 2 5 8 9 13 9 13 0 148 137 142 144 -3 2 5 9 16 16 12 6 21
17 21 24 0 7 9 21 20 31 11 10 20 24 20 31 0 7 7 17 16 22 9 5 15 12 15 16 -1
3 13 37 31 74 18 37 34 76 36 87 1 10 6 22 10 25 4 3 8 14 9 25 4 39 11 60 19
58 5 -1 8 16 8 38 -1 21 2 41 6 44 5 3 6 15 2 27 -3 11 -1 19 4 16 5 -4 9 20
8 53 0 32 3 59 7 59 4 0 8 586 8 1302 1 715 4 1305 7 1310 3 4 2 8 -3 8 -10 0
-9 133 2 150 5 8 4 11 -3 6 -6 -4 -10 5 -8 26 1 18 -2 41 -6 50 -5 10 -4 19 2
23 6 4 7 12 3 18 -8 14 -11 26 -17 80 -2 21 -7 41 -10 44 -3 3 0 13 7 21 9 13
9 14 0 8 -8 -4 -13 -1 -14 8 -1 9 -2 24 -3 34 -2 23 -33 117 -55 167 -10 22
-24 55 -32 73 -8 17 -17 32 -21 32 -5 0 -8 5 -8 11 0 6 -9 24 -21 40 -11 16
-17 29 -14 29 4 0 -3 9 -16 20 -13 10 -21 19 -17 20 20 1 -190 210 -211 210
-5 0 -14 6 -18 13 -4 7 -25 21 -45 32 -21 11 -38 22 -38 26 0 7 -39 22 -52 20
-5 -1 -8 3 -8 9 0 5 -5 10 -11 10 -5 0 -30 9 -54 20 -59 27 -214 67 -290 76
-33 3 -69 8 -80 11 -34 8 -672 13 -1410 13 -756 -1 -785 -1 -795 5 -4 3 -9 2
-12 0z"/>
</g>
</svg>
