<?xml version="1.0" standalone="no"?>
<!DOCTYPE svg PUBLIC "-//W3C//DTD SVG 20010904//EN"
 "http://www.w3.org/TR/2001/REC-SVG-20010904/DTD/svg10.dtd">
<svg version="1.0" xmlns="http://www.w3.org/2000/svg"
 width="512.000000pt" height="512.000000pt" viewBox="0 0 512.000000 512.000000"
 preserveAspectRatio="xMidYMid meet">
<metadata>
Created by potrace 1.14, written by Peter Selinger 2001-2017
</metadata>
<g transform="translate(0.000000,512.000000) scale(0.100000,-0.100000)"
fill="#000000" stroke="none">
<path d="M2340 4549 c-371 -42 -748 -200 -1040 -436 -89 -72 -257 -243 -321
-328 -134 -175 -249 -393 -318 -600 -208 -627 -90 -1316 318 -1850 64 -85 232
-256 321 -328 737 -595 1783 -595 2520 0 89 72 257 243 321 328 134 175 259
411 322 610 202 630 83 1310 -322 1840 -64 85 -232 256 -321 328 -298 240
-669 395 -1052 436 -111 13 -318 12 -428 0z m905 -621 c42 -33 55 -76 55 -184
0 -111 -16 -155 -64 -185 -48 -29 -117 -25 -157 8 -45 39 -59 79 -59 177 0
148 41 206 146 206 38 0 59 -6 79 -22z m-1207 -307 c47 -33 62 -77 62 -180 0
-105 -13 -145 -59 -184 -64 -54 -170 -27 -205 52 -26 57 -20 238 10 278 46 63
130 78 192 34z m603 -74 c68 -45 69 -49 69 -465 0 -413 1 -420 63 -464 47 -34
132 -37 176 -6 72 49 75 60 81 261 3 124 9 189 18 205 33 58 128 80 189 42 66
-40 64 -9 61 -748 l-3 -667 -27 -75 c-77 -211 -275 -381 -512 -440 -108 -27
-281 -27 -390 0 -153 39 -292 123 -389 236 -62 73 -90 122 -124 219 l-28 80
-3 653 c-3 598 -1 655 14 688 44 93 186 100 237 11 8 -14 14 -84 17 -198 5
-175 5 -176 34 -213 15 -21 42 -46 60 -57 38 -23 115 -25 155 -4 37 19 81 71
87 104 3 14 6 193 7 396 l2 370 24 34 c44 61 123 78 182 38z m574 -91 c43 -18
75 -69 75 -120 0 -31 -7 -45 -39 -77 -32 -33 -45 -39 -80 -39 -82 0 -131 49
-131 128 0 46 29 88 74 108 40 17 59 17 101 0z"/>
</g>
</svg>
