<?xml version="1.0" standalone="no"?>
<!DOCTYPE svg PUBLIC "-//W3C//DTD SVG 20010904//EN"
 "http://www.w3.org/TR/2001/REC-SVG-20010904/DTD/svg10.dtd">
<svg version="1.0" xmlns="http://www.w3.org/2000/svg"
 width="1024.000000pt" height="1024.000000pt" viewBox="0 0 1024.000000 1024.000000"
 preserveAspectRatio="xMidYMid meet">
<metadata>
Created by potrace 1.14, written by Peter Selinger 2001-2017
</metadata>
<g transform="translate(0.000000,1024.000000) scale(0.100000,-0.100000)"
fill="#000000" stroke="none">
<path d="M4745 9829 c-33 -4 -112 -13 -175 -18 -159 -15 -378 -50 -530 -85
-36 -8 -87 -20 -115 -26 -27 -6 -58 -15 -67 -20 -10 -6 -24 -10 -31 -10 -24 0
-304 -89 -364 -116 -17 -8 -37 -14 -45 -14 -8 0 -18 -4 -23 -8 -6 -5 -32 -17
-60 -27 -27 -9 -63 -23 -80 -31 -613 -265 -1044 -559 -1520 -1038 -138 -139
-195 -200 -331 -358 -52 -60 -178 -231 -239 -325 -35 -54 -69 -103 -75 -110
-5 -7 -10 -15 -10 -19 0 -4 -6 -15 -14 -23 -7 -9 -27 -41 -43 -71 -16 -30 -52
-95 -80 -145 -51 -93 -131 -255 -178 -360 -14 -33 -30 -69 -35 -80 -9 -19 -35
-85 -67 -170 -9 -22 -21 -53 -28 -70 -6 -16 -27 -77 -45 -135 -18 -58 -37
-114 -41 -125 -9 -21 -13 -37 -54 -210 -14 -60 -30 -124 -35 -140 -5 -17 -14
-60 -20 -95 -35 -209 -42 -252 -50 -320 -49 -420 -40 -905 24 -1305 21 -127
58 -313 75 -375 6 -19 17 -60 25 -90 47 -174 78 -272 126 -400 17 -47 36 -98
41 -115 6 -16 15 -39 19 -50 9 -20 44 -103 59 -140 5 -11 46 -96 92 -190 144
-294 333 -594 536 -850 148 -188 666 -695 827 -810 15 -11 47 -34 70 -51 136
-102 353 -241 526 -338 65 -37 346 -176 354 -176 3 0 35 -14 73 -31 109 -49
123 -55 213 -87 146 -53 243 -84 298 -98 28 -8 78 -21 110 -29 410 -111 754
-154 1237 -154 515 0 833 44 1333 183 129 36 387 131 507 185 22 10 69 31 105
46 84 35 288 137 339 170 22 14 43 25 46 25 8 0 144 83 260 158 495 321 965
784 1317 1297 68 100 186 289 195 312 4 10 17 35 30 56 39 63 159 305 203 412
23 55 47 114 55 130 7 17 20 53 30 80 9 28 21 59 26 70 21 47 109 332 109 352
0 7 4 21 10 31 5 9 14 40 20 67 6 28 18 79 26 115 62 279 86 463 104 812 25
453 -21 922 -134 1373 -30 120 -38 150 -46 170 -4 11 -17 54 -29 95 -13 41
-26 82 -30 90 -5 9 -12 30 -16 49 -4 18 -13 44 -21 59 -8 15 -14 34 -14 43 0
8 -4 19 -8 25 -5 5 -17 32 -27 59 -29 82 -63 158 -154 345 -169 347 -397 696
-635 970 -125 144 -429 448 -561 561 -335 286 -784 561 -1205 738 -69 29 -133
56 -142 62 -10 5 -23 9 -29 9 -6 0 -25 6 -42 14 -60 27 -340 116 -364 116 -7
0 -21 4 -31 10 -17 9 -42 15 -187 46 -209 45 -362 69 -520 84 -60 5 -146 14
-191 20 -93 12 -591 11 -679 -1z m1902 -1389 c61 -27 128 -94 163 -163 l30
-60 0 -243 c0 -270 -3 -289 -67 -374 -71 -93 -169 -137 -290 -128 -117 8 -212
78 -271 198 -26 54 -27 59 -30 272 -4 247 4 293 65 385 48 72 112 116 196 133
57 11 153 2 204 -20z m-2843 -745 c61 -31 113 -83 149 -150 21 -38 22 -56 25
-298 3 -256 3 -258 -21 -312 -34 -72 -97 -139 -166 -172 -48 -24 -68 -28 -137
-27 -67 0 -90 5 -136 27 -62 30 -125 93 -160 159 -22 42 -23 50 -23 313 l0
270 33 55 c55 89 77 109 177 152 65 29 184 21 259 -17z m1450 -180 c64 -32
109 -79 146 -152 l25 -48 5 -905 c5 -904 5 -905 27 -952 29 -64 85 -135 133
-170 124 -92 326 -91 452 1 47 35 122 136 140 190 8 24 14 165 17 431 6 387 6
396 29 438 53 99 136 163 234 181 147 27 292 -48 354 -184 l24 -52 3 -1529 2
-1529 -22 -95 c-70 -302 -189 -527 -394 -744 -169 -178 -347 -305 -566 -400
-139 -62 -219 -87 -414 -130 -183 -41 -530 -39 -738 4 -83 17 -124 28 -226 57
-11 3 -58 21 -105 41 -307 124 -548 306 -745 560 -133 171 -216 347 -278 592
-21 85 -21 87 -24 1625 l-4 1539 30 61 c53 107 125 164 234 184 146 27 287
-47 352 -184 l25 -54 0 -353 c0 -283 3 -365 15 -412 30 -116 109 -215 212
-267 65 -33 73 -34 178 -34 87 0 120 4 155 19 107 46 193 137 233 247 16 41
18 127 20 930 l2 884 34 63 c67 124 169 184 301 179 59 -2 87 -9 134 -32z
m1390 -236 c61 -28 113 -80 146 -145 35 -68 35 -188 1 -253 -81 -155 -258
-215 -411 -138 -54 27 -72 42 -107 94 -56 84 -70 151 -49 233 30 117 111 202
221 231 51 14 146 3 199 -22z"/>
</g>
</svg>
